<svg width="800" height="427" viewBox="0 0 800 427" fill="none" xmlns="http://www.w3.org/2000/svg">
<path d="M229.026 193.229C229.192 190.66 228.329 188.128 226.63 186.195L149.715 98.6902C148.016 96.7569 145.617 95.5778 143.046 95.4118C140.464 95.2471 137.945 96.1085 136.012 97.8079C100.669 128.875 71.3333 165.512 48.8144 206.703C47.5804 208.963 47.2915 211.621 48.0157 214.09C48.7399 216.561 50.4157 218.643 52.6758 219.877L154.905 275.757C156.383 276.566 157.979 276.949 159.554 276.949C162.988 276.949 166.318 275.122 168.081 271.895C182.965 244.669 202.367 220.446 225.746 199.895C227.684 198.199 228.863 195.8 229.026 193.229Z" fill="url(#paint0_linear_30_3)"/>
<path d="M263.349 160.822C265.093 164.11 268.456 165.983 271.935 165.983C273.469 165.983 275.026 165.618 276.475 164.85C303.876 150.318 333.353 140.835 364.089 136.665C369.401 135.945 373.126 131.053 372.405 125.74L356.746 10.294C356.026 4.9816 351.12 1.26265 345.821 1.97768C299.144 8.3084 254.384 22.7058 212.786 44.7698C208.05 47.2823 206.247 53.1568 208.757 57.8953L263.349 160.822Z" fill="url(#paint1_linear_30_3)"/>
<path d="M138.281 317.052L25.8405 286.545C23.3556 285.873 20.7046 286.212 18.4706 287.493C16.2366 288.774 14.6039 290.889 13.9281 293.374C4.68758 327.444 0 362.757 0 398.331C0 404.418 0.145098 410.526 0.447059 417.003C0.688889 422.207 4.98039 426.262 10.1386 426.262C10.2902 426.262 10.4444 426.259 10.5961 426.251L126.976 420.875C129.548 420.757 131.97 419.62 133.702 417.718C135.437 415.816 136.345 413.299 136.225 410.728C136.022 406.361 135.924 402.305 135.924 398.331C135.924 374.775 139.016 351.438 145.112 328.963C146.512 323.79 143.455 318.458 138.281 317.052Z" fill="url(#paint2_linear_30_3)"/>
<path d="M573.505 37.8366C531.137 17.4118 485.871 4.75427 438.962 0.207869C436.384 -0.050955 433.84 0.741197 431.852 2.37649C429.864 4.01309 428.609 6.37127 428.361 8.93598L417.128 124.899C416.61 130.235 420.519 134.982 425.856 135.498C456.774 138.493 486.592 146.83 514.484 160.275C515.81 160.915 517.252 161.239 518.699 161.239C519.779 161.239 520.861 161.058 521.902 160.695C524.332 159.847 526.327 158.065 527.444 155.746L578.033 50.7961C580.363 45.9673 578.336 40.1634 573.505 37.8366Z" fill="url(#paint3_linear_30_3)"/>
<path d="M744.63 200.702C745.258 198.204 744.871 195.562 743.548 193.35C719.454 153.043 688.733 117.555 652.243 87.8783C650.244 86.2548 647.694 85.494 645.123 85.7516C642.562 86.0169 640.21 87.2862 638.587 89.2836L565.075 179.668C563.451 181.667 562.685 184.227 562.95 186.788C563.213 189.349 564.484 191.701 566.482 193.327C590.626 212.959 610.946 236.431 626.881 263.09C628.701 266.131 631.92 267.82 635.225 267.82C636.92 267.82 638.637 267.375 640.196 266.442L740.197 206.667C742.405 205.345 744 203.2 744.63 200.702Z" fill="url(#paint4_linear_30_3)"/>
<path d="M781.757 278.613C780.152 273.495 774.702 270.644 769.59 272.251L658.416 307.085C653.298 308.688 650.451 314.135 652.054 319.25C660.033 344.722 664.078 371.327 664.078 398.327C664.078 402.302 663.979 406.358 663.778 410.724C663.658 413.295 664.565 415.812 666.301 417.714C668.035 419.617 670.455 420.753 673.026 420.871L789.407 426.247C789.561 426.254 789.712 426.258 789.864 426.258C795.02 426.258 799.312 422.201 799.556 416.999C799.855 410.522 800.003 404.414 800.003 398.327C800 357.524 793.864 317.247 781.757 278.613Z" fill="url(#paint5_linear_30_3)"/>
<defs>
<linearGradient id="paint0_linear_30_3" x1="183.5" y1="130" x2="118" y2="277" gradientUnits="userSpaceOnUse">
<stop stop-color="#FFE600"/>
<stop offset="1" stop-color="#FF8A00"/>
</linearGradient>
<linearGradient id="paint1_linear_30_3" x1="372" y1="48" x2="208" y2="84" gradientUnits="userSpaceOnUse">
<stop stop-color="#DBFF00"/>
<stop offset="1" stop-color="#FFD600"/>
</linearGradient>
<linearGradient id="paint2_linear_30_3" x1="72.7259" y1="286.208" x2="72.7259" y2="426.262" gradientUnits="userSpaceOnUse">
<stop stop-color="#FF8A00"/>
<stop offset="1" stop-color="#FF0000"/>
</linearGradient>
<linearGradient id="paint3_linear_30_3" x1="555" y1="81" x2="394.5" y2="51" gradientUnits="userSpaceOnUse">
<stop stop-color="#4DC703"/>
<stop offset="1" stop-color="#ADFF00"/>
</linearGradient>
<linearGradient id="paint4_linear_30_3" x1="592" y1="127" x2="654" y2="268" gradientUnits="userSpaceOnUse">
<stop stop-color="#70FF00"/>
<stop offset="1" stop-color="#1ABC00"/>
</linearGradient>
<linearGradient id="paint5_linear_30_3" x1="725.805" y1="271.803" x2="725.805" y2="426.258" gradientUnits="userSpaceOnUse">
<stop stop-color="#4BC600"/>
<stop offset="1" stop-color="#14FF00"/>
</linearGradient>
</defs>
</svg>
