<svg width="270" height="277" viewBox="0 0 270 277" fill="none" xmlns="http://www.w3.org/2000/svg">
<path d="M178.656 94.7189C176.982 94.7189 175.316 94.7737 173.658 94.8626L15.9451 1.81034C12.085 -0.470704 7.18434 0.100541 3.95035 3.2025C0.71375 6.30185 -0.0627325 11.1751 2.04707 15.1254L88.0798 176.374C87.7634 179.48 87.5948 182.616 87.5948 185.779C87.5948 210.103 97.0667 232.97 114.265 250.169C131.465 267.369 154.333 276.84 178.658 276.84C202.982 276.84 225.848 267.366 243.047 250.169C260.247 232.97 269.718 210.103 269.718 185.779C269.718 161.455 260.246 138.588 243.047 121.389C225.848 104.191 202.979 94.7189 178.656 94.7189Z" fill="white"/>
</svg>
